<svg version="1" xmlns="http://www.w3.org/2000/svg" width="346.667" height="346.667" viewBox="0 0 260.000000 260.000000"><path d="M116 8.5c-12.9 2.7-22.9 7.5-30.3 14.3C75.4 32.5 73 39.3 73 59.1v13.8l-17.2.3c-15.8.3-17.7.5-22.1 2.7-10.9 5.4-19.3 16-24.5 31-2.3 6.9-2.6 9-2.6 22.6 0 13.6.3 15.7 2.6 22.5 1.5 4.1 3.9 9.7 5.4 12.5 3.7 6.6 12.7 15.4 18.9 18.5 4.7 2.3 6.2 2.5 22.3 2.8l17.2.4v13.7c0 19.8 2.4 26.6 12.7 36.3 6.1 5.6 14.5 10 25 13 11.2 3.2 29.6 3.2 40.8 0 16.3-4.7 28.7-13.8 34.3-25.2 2.5-5.2 2.7-6.4 3-21.7l.4-16.1 16.6-.4c19.2-.4 22.2-1.3 31.5-9.8 6.4-5.8 10.7-13 14.4-23.5 2.5-7.4 2.7-9.2 2.7-23s-.2-15.6-2.7-23c-3.7-10.5-8-17.7-14.4-23.5-9.3-8.5-12.3-9.5-31.5-9.8l-16.6-.3-.4-16.2c-.3-15.4-.4-16.5-3.1-22-1.6-3.2-5.1-8-7.8-10.7-5.5-5.5-17.8-12-27.4-14.6-8.3-2.2-26.4-2.7-34.5-.9zm38.3 5.9c9.8 3.3 16.9 7.8 22.9 14.4 7.1 8 7.8 11 7.8 35.9V86H76.9l.3-22.8.3-22.7 2.9-5.3c6.7-11.9 17.5-18.7 38.1-23.6 1.1-.3 7.9-.3 15-.2 10.8.3 14.3.8 20.8 3zM73 129v53H56.8c-15.2 0-16.6-.2-21.6-2.5-10.8-5-19.8-17.3-23.7-32.5-2.3-8.7-2.3-26.3 0-35 4.8-18.4 16.3-31.6 30.2-34.9 2.1-.5 10-.9 17.6-1L73 76v53zm153.2-49.2c15.9 7.8 25 26 25 49.7 0 23.3-9.1 41.8-24.4 49.4-6.1 3.1-6.3 3.1-22 3.1H189V75.8l15.3.3c14.9.4 15.4.5 21.9 3.7zm-41.4 48.9l-.3 38.8h-107l-.3-38.8L77 90h108l-.2 38.7zm.2 64.6c0 26.6-.5 28.9-8.7 37.8-23.8 25.7-80 21.4-95.9-7.3l-2.9-5.3-.3-23.8-.3-23.7H185v22.3z"/><path d="M111.1 28.2c-.9 2.3 0 5.1 1.9 6.3 1.6 1 4.9-.5 5.5-2.5 1.6-5-5.6-8.6-7.4-3.8zM148 27.5c-1.6 2-.5 6.2 1.9 7 4.2 1.3 7.2-2.5 5.1-6.5-1.3-2.4-5.2-2.7-7-.5zM95.7 43.7c-1.5 1.4-.7 6.3 1.2 7.3 3.8 2 7-1.5 5.6-6-.6-2-5.3-2.9-6.8-1.3zM127.6 44.5c-1.8 4.9 1.4 8.7 5.5 6.5 1.5-.9 1.9-1.9 1.7-4.3-.3-2.8-.7-3.2-3.4-3.5-2.2-.2-3.3.2-3.8 1.3zM160.2 44.2c-1.8 1.8-1.4 4.5.9 6.2 2.6 1.7 4.8 1.1 5.9-1.8 1.6-4.3-3.5-7.7-6.8-4.4zM111 62.9c-2.3 4.4 2.3 8.3 6.1 5.2 2.1-1.6 2.2-2.2 1.1-4.5-1.4-3.2-5.6-3.6-7.2-.7zM148.2 62.2c-1.8 1.8-1.4 4.5 1 6.2 3.7 2.6 7.9-1.4 5.8-5.5-1.2-2.1-5-2.5-6.8-.7zM50.3 97.8c-2.7 1.7-1.9 7 1.2 7.8 3.1.8 5.5-1 5.5-4 0-3.8-3.6-5.8-6.7-3.8zM28.1 112.9c-2.5 2.5-1.7 5.9 1.5 6.7 1.4.4 3.1.1 3.9-.6 2.1-1.8 1.9-5.7-.4-7-2.6-1.3-2.8-1.3-5 .9zM49 129.1c-.9 1.6-.8 2.6.5 4.5 2.6 3.9 7.5 2.6 7.5-2.1 0-4.5-6-6.3-8-2.4zM28.4 143.8c-2.1 1.4-2.3 4.1-.5 6.4 1.6 2 2.2 2.1 4.5 1 1.7-.8 2.6-1.9 2.6-3.5 0-3.8-3.6-6-6.6-3.9zM49 159.1c-.9 1.6-.8 2.6.5 4.5.8 1.3 2.1 2.4 2.9 2.4 1.7 0 4.6-3.2 4.6-5.1 0-4-6.2-5.3-8-1.8zM205.9 99.1c-1.6 3.1.3 6.9 3.6 6.9 1.7 0 2.9-.8 3.6-2.4 1.5-3.2-.4-6.6-3.6-6.6-1.5 0-2.9.9-3.6 2.1zM228.6 112.6c-1.9 1.8-2.1 4.5-.4 6.2 3.9 3.9 10-1.7 6.3-5.8-2.2-2.4-3.8-2.5-5.9-.4zM206 129c-2.1 4 1.2 8 5.4 6.4 2.2-.8 3.1-5 1.6-6.9-1.8-2.2-5.7-1.9-7 .5zM228 144.5c-1.6 2-.5 6.2 1.9 7 4.2 1.3 7.2-2.5 5.1-6.5-1.3-2.4-5.2-2.7-7-.5zM206.2 158.2c-1.8 1.8-1.5 4.2.9 6.4 2.2 2 4.3 1.3 6.3-1.9 2.3-3.6-4.1-7.6-7.2-4.5zM111 190.9c-1.2 2.4-.4 4.8 2.2 6.2 1.6.9 2.5.7 4.1-1 1.8-1.7 1.9-2.4.9-4.6-1.4-3.1-5.6-3.4-7.2-.6zM148.2 190.2c-1.8 1.8-1.5 4.2.7 6.2 3.4 3.1 8.3-1.3 6.1-5.5-1.2-2.1-5-2.5-6.8-.7zM95.7 208.7c-1.5 1.4-.7 6.3 1.2 7.3 3.8 2 7-1.5 5.6-6-.6-2-5.3-2.9-6.8-1.3zM127.4 209.4c-.3.9-.3 2.7 0 4 1.3 5.3 7.9 3.8 7.4-1.7-.3-2.8-.7-3.2-3.6-3.5-2.2-.2-3.4.2-3.8 1.2zM160.2 209.2c-1.8 1.8-1.4 4.5 1 6.2 3.2 2.3 6 .4 5.6-3.7-.2-2.6-.8-3.3-2.8-3.5-1.4-.2-3.1.3-3.8 1zM111.6 226.1c-3.1 4.4 2.9 9.7 6.1 5.3 1.7-2.3 1.6-3.9-.3-5.8-2.1-2.2-4-2-5.8.5zM148.6 225.6c-3.1 3.1-1.3 7.4 3.1 7.4 2.1 0 4.3-2.5 4.3-4.9 0-1.4-2.9-4.1-4.5-4.1-.7 0-2.1.7-2.9 1.6z"/></svg>